# MagicaVoxel @ Ephtracy

# group
o 

# material
mtllib Plantation.mtl
usemtl palette

# normals
vn -1 0 0
vn 1 0 0
vn 0 0 1
vn 0 0 -1
vn 0 -1 0
vn 0 1 0

# texcoords
vt 0.134766 0.5
vt 0.658203 0.5
vt 0.716797 0.5
vt 0.720703 0.5
vt 0.724609 0.5
vt 0.732422 0.5

# verts
v -0.5 0 0.5
v -0.5 0 0.3
v -0.5 0 -0.3
v -0.5 0 -0.4
v -0.5 0 -0.5
v -0.5 0.1 0.3
v -0.5 0.1 -0.3
v -0.5 0.1 -0.4
v -0.5 0.1 -0.5
v -0.5 0.2 0.5
v -0.5 0.2 0.4
v -0.5 0.2 0.3
v -0.5 0.2 -0.5
v -0.5 0.3 0.5
v -0.5 0.3 0.4
v -0.5 0.3 -0.4
v -0.5 0.3 -0.5
v -0.5 0.4 0.5
v -0.5 0.4 0.4
v -0.5 0.4 -0.4
v -0.5 0.4 -0.5
v 0.3 0 0.5
v 0.3 0 0.4
v 0.3 0 -0.4
v 0.3 0 -0.5
v 0.3 0.1 0.5
v 0.3 0.1 0.4
v 0.3 0.1 -0.4
v 0.3 0.1 -0.5
v 0.4 0 0.4
v 0.4 0 0.3
v 0.4 0 -0.3
v 0.4 0 -0.4
v 0.4 0.1 0.4
v 0.4 0.1 0.3
v 0.4 0.1 -0.3
v 0.4 0.1 -0.4
v 0.4 0.2 0.4
v 0.4 0.2 -0.4
v 0.4 0.3 0.4
v 0.4 0.3 -0.4
v 0.4 0.4 0.4
v 0.4 0.4 -0.4
v -0.4 0 0.4
v -0.4 0 0.3
v -0.4 0 -0.3
v -0.4 0 -0.4
v -0.4 0.1 0.4
v -0.4 0.1 0.3
v -0.4 0.1 -0.3
v -0.4 0.1 -0.4
v -0.4 0.2 0.4
v -0.4 0.2 -0.4
v -0.4 0.3 0.4
v -0.4 0.3 -0.4
v -0.4 0.4 0.4
v -0.4 0.4 -0.4
v -0.3 0 0.5
v -0.3 0 0.4
v -0.3 0 -0.4
v -0.3 0 -0.5
v -0.3 0.1 0.5
v -0.3 0.1 0.4
v -0.3 0.1 -0.4
v -0.3 0.1 -0.5
v 0.5 0 0.5
v 0.5 0 0.3
v 0.5 0 -0.3
v 0.5 0 -0.5
v 0.5 0.1 0.3
v 0.5 0.1 0.2
v 0.5 0.1 -0.3
v 0.5 0.2 0.2
v 0.5 0.2 -0.5
v 0.5 0.3 0.5
v 0.5 0.3 0.4
v 0.5 0.3 -0.5
v 0.5 0.4 0.5
v 0.5 0.4 0.4
v 0.5 0.4 -0.5
v -0.5 0 0.5
v -0.5 0.2 0.5
v -0.5 0.3 0.5
v -0.5 0.4 0.5
v -0.4 0 0.5
v -0.4 0.2 0.5
v -0.3 0 0.5
v -0.3 0.1 0.5
v 0.3 0 0.5
v 0.3 0.1 0.5
v 0.4 0 0.5
v 0.4 0.2 0.5
v 0.4 0.3 0.5
v 0.5 0 0.5
v 0.5 0.3 0.5
v 0.5 0.4 0.5
v -0.5 0 -0.3
v -0.5 0.1 -0.3
v -0.4 0 -0.3
v -0.4 0.1 -0.3
v 0.4 0 -0.3
v 0.4 0.1 -0.3
v 0.5 0 -0.3
v 0.5 0.1 -0.3
v -0.4 0 -0.4
v -0.4 0.1 -0.4
v -0.4 0.2 -0.4
v -0.4 0.3 -0.4
v -0.4 0.4 -0.4
v -0.3 0 -0.4
v -0.3 0.1 -0.4
v 0.3 0 -0.4
v 0.3 0.1 -0.4
v 0.4 0 -0.4
v 0.4 0.1 -0.4
v 0.4 0.2 -0.4
v 0.4 0.3 -0.4
v 0.4 0.4 -0.4
v -0.4 0 0.4
v -0.4 0.1 0.4
v -0.4 0.2 0.4
v -0.4 0.3 0.4
v -0.4 0.4 0.4
v -0.3 0 0.4
v -0.3 0.1 0.4
v 0.3 0 0.4
v 0.3 0.1 0.4
v 0.4 0 0.4
v 0.4 0.1 0.4
v 0.4 0.2 0.4
v 0.4 0.3 0.4
v 0.4 0.4 0.4
v -0.5 0 0.3
v -0.5 0.1 0.3
v -0.4 0 0.3
v -0.4 0.1 0.3
v 0.4 0 0.3
v 0.4 0.1 0.3
v 0.5 0 0.3
v 0.5 0.1 0.3
v -0.5 0 -0.5
v -0.5 0.1 -0.5
v -0.5 0.2 -0.5
v -0.5 0.3 -0.5
v -0.5 0.4 -0.5
v -0.4 0.1 -0.5
v -0.4 0.2 -0.5
v -0.3 0 -0.5
v -0.3 0.1 -0.5
v 0.3 0 -0.5
v 0.3 0.1 -0.5
v 0.4 0 -0.5
v 0.4 0.2 -0.5
v 0.5 0 -0.5
v 0.5 0.2 -0.5
v 0.5 0.3 -0.5
v 0.5 0.4 -0.5
v -0.5 0 0.5
v -0.4 0 0.5
v -0.3 0 0.5
v 0.3 0 0.5
v 0.4 0 0.5
v 0.5 0 0.5
v -0.4 0 0.4
v -0.3 0 0.4
v 0.3 0 0.4
v 0.4 0 0.4
v -0.5 0 0.3
v -0.4 0 0.3
v 0.4 0 0.3
v 0.5 0 0.3
v -0.5 0 -0.3
v -0.4 0 -0.3
v 0.4 0 -0.3
v 0.5 0 -0.3
v -0.5 0 -0.4
v -0.4 0 -0.4
v -0.3 0 -0.4
v 0.3 0 -0.4
v 0.4 0 -0.4
v -0.5 0 -0.5
v -0.3 0 -0.5
v 0.3 0 -0.5
v 0.4 0 -0.5
v 0.5 0 -0.5
v -0.3 0.1 0.5
v 0.3 0.1 0.5
v -0.4 0.1 0.4
v -0.3 0.1 0.4
v 0.3 0.1 0.4
v 0.4 0.1 0.4
v -0.5 0.1 0.3
v -0.4 0.1 0.3
v 0.4 0.1 0.3
v 0.5 0.1 0.3
v 0.4 0.1 0.2
v 0.5 0.1 0.2
v -0.5 0.1 -0.3
v -0.4 0.1 -0.3
v 0.4 0.1 -0.3
v 0.5 0.1 -0.3
v -0.4 0.1 -0.4
v -0.3 0.1 -0.4
v 0.3 0.1 -0.4
v 0.4 0.1 -0.4
v -0.3 0.1 -0.5
v 0.3 0.1 -0.5
v -0.4 0.2 0.4
v 0.4 0.2 0.4
v -0.4 0.2 -0.4
v 0.4 0.2 -0.4
v -0.5 0.4 0.5
v 0.5 0.4 0.5
v -0.5 0.4 0.4
v -0.4 0.4 0.4
v 0.4 0.4 0.4
v 0.5 0.4 0.4
v -0.5 0.4 -0.4
v -0.4 0.4 -0.4
v 0.4 0.4 -0.4
v -0.5 0.4 -0.5
v 0.5 0.4 -0.5

# faces
f 6/4/1 2/4/1 1/4/1
f 7/3/1 4/3/1 3/3/1
f 8/4/1 5/4/1 4/4/1
f 8/3/1 4/3/1 7/3/1
f 9/4/1 5/4/1 8/4/1
f 10/4/1 6/4/1 1/4/1
f 11/4/1 6/4/1 10/4/1
f 12/2/1 7/2/1 6/2/1
f 12/4/1 6/4/1 11/4/1
f 12/2/1 8/2/1 7/2/1
f 12/2/1 9/2/1 8/2/1
f 13/2/1 9/2/1 12/2/1
f 14/6/1 11/6/1 10/6/1
f 15/4/1 12/4/1 11/4/1
f 15/6/1 11/6/1 14/6/1
f 15/4/1 13/4/1 12/4/1
f 16/4/1 13/4/1 15/4/1
f 17/4/1 13/4/1 16/4/1
f 18/2/1 15/2/1 14/2/1
f 19/4/1 16/4/1 15/4/1
f 19/2/1 15/2/1 18/2/1
f 20/5/1 17/5/1 16/5/1
f 20/4/1 16/4/1 19/4/1
f 21/5/1 17/5/1 20/5/1
f 26/1/1 23/1/1 22/1/1
f 27/1/1 23/1/1 26/1/1
f 28/4/1 25/4/1 24/4/1
f 29/4/1 25/4/1 28/4/1
f 34/4/1 31/4/1 30/4/1
f 35/4/1 31/4/1 34/4/1
f 36/2/1 33/2/1 32/2/1
f 37/2/1 33/2/1 36/2/1
f 40/4/1 39/4/1 38/4/1
f 41/4/1 39/4/1 40/4/1
f 42/5/1 41/5/1 40/5/1
f 43/5/1 41/5/1 42/5/1
f 44/4/2 45/4/2 48/4/2
f 48/4/2 45/4/2 49/4/2
f 46/3/2 47/3/2 50/3/2
f 50/3/2 47/3/2 51/3/2
f 52/4/2 53/4/2 54/4/2
f 54/4/2 53/4/2 55/4/2
f 54/4/2 55/4/2 56/4/2
f 56/4/2 55/4/2 57/4/2
f 58/1/2 59/1/2 62/1/2
f 62/1/2 59/1/2 63/1/2
f 60/4/2 61/4/2 64/4/2
f 64/4/2 61/4/2 65/4/2
f 66/4/2 67/4/2 70/4/2
f 68/2/2 69/2/2 72/2/2
f 70/4/2 71/4/2 73/4/2
f 71/2/2 72/2/2 73/2/2
f 72/2/2 69/2/2 74/2/2
f 73/2/2 72/2/2 74/2/2
f 70/4/2 73/4/2 75/4/2
f 66/4/2 70/4/2 75/4/2
f 73/4/2 74/4/2 75/4/2
f 75/4/2 74/4/2 76/4/2
f 76/4/2 74/4/2 77/4/2
f 75/2/2 76/2/2 78/2/2
f 76/5/2 77/5/2 79/5/2
f 78/2/2 76/2/2 79/2/2
f 79/5/2 77/5/2 80/5/2
f 85/4/3 82/4/3 81/4/3
f 86/6/3 83/6/3 82/6/3
f 86/4/3 82/4/3 85/4/3
f 87/1/3 86/1/3 85/1/3
f 88/1/3 86/1/3 87/1/3
f 90/1/3 86/1/3 88/1/3
f 91/1/3 90/1/3 89/1/3
f 92/6/3 83/6/3 86/6/3
f 92/1/3 90/1/3 91/1/3
f 92/1/3 86/1/3 90/1/3
f 93/2/3 84/2/3 83/2/3
f 93/6/3 83/6/3 92/6/3
f 94/4/3 92/4/3 91/4/3
f 94/4/3 93/4/3 92/4/3
f 95/2/3 84/2/3 93/2/3
f 95/4/3 93/4/3 94/4/3
f 96/2/3 84/2/3 95/2/3
f 99/3/3 98/3/3 97/3/3
f 100/3/3 98/3/3 99/3/3
f 103/2/3 102/2/3 101/2/3
f 104/2/3 102/2/3 103/2/3
f 110/4/3 106/4/3 105/4/3
f 111/4/3 106/4/3 110/4/3
f 114/4/3 113/4/3 112/4/3
f 115/4/3 113/4/3 114/4/3
f 116/4/3 108/4/3 107/4/3
f 117/5/3 109/5/3 108/5/3
f 117/4/3 108/4/3 116/4/3
f 118/5/3 109/5/3 117/5/3
f 119/1/4 120/1/4 124/1/4
f 124/1/4 120/1/4 125/1/4
f 126/1/4 127/1/4 128/1/4
f 128/1/4 127/1/4 129/1/4
f 121/6/4 122/6/4 130/6/4
f 122/2/4 123/2/4 131/2/4
f 130/6/4 122/6/4 131/6/4
f 131/2/4 123/2/4 132/2/4
f 133/4/4 134/4/4 135/4/4
f 135/4/4 134/4/4 136/4/4
f 137/4/4 138/4/4 139/4/4
f 139/4/4 138/4/4 140/4/4
f 141/4/4 142/4/4 146/4/4
f 142/2/4 143/2/4 146/2/4
f 143/4/4 144/4/4 147/4/4
f 146/2/4 143/2/4 147/2/4
f 141/4/4 146/4/4 148/4/4
f 146/4/4 147/4/4 148/4/4
f 148/4/4 147/4/4 149/4/4
f 149/4/4 147/4/4 151/4/4
f 150/4/4 151/4/4 152/4/4
f 147/4/4 144/4/4 153/4/4
f 152/4/4 151/4/4 153/4/4
f 151/4/4 147/4/4 153/4/4
f 152/2/4 153/2/4 154/2/4
f 153/4/4 144/4/4 155/4/4
f 154/2/4 153/2/4 155/2/4
f 144/5/4 145/5/4 156/5/4
f 155/4/4 144/4/4 156/4/4
f 156/5/4 145/5/4 157/5/4
f 164/4/5 159/4/5 158/4/5
f 164/1/5 160/1/5 159/1/5
f 165/1/5 160/1/5 164/1/5
f 166/1/5 162/1/5 161/1/5
f 167/4/5 163/4/5 162/4/5
f 167/1/5 162/1/5 166/1/5
f 168/4/5 164/4/5 158/4/5
f 169/4/5 164/4/5 168/4/5
f 170/4/5 163/4/5 167/4/5
f 171/4/5 163/4/5 170/4/5
f 176/3/5 173/3/5 172/3/5
f 177/3/5 173/3/5 176/3/5
f 180/2/5 175/2/5 174/2/5
f 181/4/5 178/4/5 177/4/5
f 181/4/5 177/4/5 176/4/5
f 182/4/5 178/4/5 181/4/5
f 183/4/5 180/4/5 179/4/5
f 184/2/5 175/2/5 180/2/5
f 184/4/5 180/4/5 183/4/5
f 185/2/5 175/2/5 184/2/5
f 189/1/5 187/1/5 186/1/5
f 190/1/5 187/1/5 189/1/5
f 193/3/5 189/3/5 188/3/5
f 193/3/5 191/3/5 190/3/5
f 193/3/5 190/3/5 189/3/5
f 194/3/5 191/3/5 193/3/5
f 196/3/5 194/3/5 193/3/5
f 196/4/5 195/4/5 194/4/5
f 197/4/5 195/4/5 196/4/5
f 198/2/5 193/2/5 192/2/5
f 199/3/5 196/3/5 193/3/5
f 199/2/5 193/2/5 198/2/5
f 200/2/5 197/2/5 196/2/5
f 200/3/5 196/3/5 199/3/5
f 201/2/5 197/2/5 200/2/5
f 202/3/5 200/3/5 199/3/5
f 203/3/5 200/3/5 202/3/5
f 204/3/5 200/3/5 203/3/5
f 205/3/5 200/3/5 204/3/5
f 206/4/5 204/4/5 203/4/5
f 207/4/5 204/4/5 206/4/5
f 208/3/6 209/3/6 210/3/6
f 210/3/6 209/3/6 211/3/6
f 212/2/6 213/2/6 214/2/6
f 214/2/6 213/2/6 215/2/6
f 215/2/6 213/2/6 216/2/6
f 216/2/6 213/2/6 217/2/6
f 214/4/6 215/4/6 218/4/6
f 218/4/6 215/4/6 219/4/6
f 216/5/6 217/5/6 220/5/6
f 218/5/6 219/5/6 221/5/6
f 219/5/6 220/5/6 221/5/6
f 220/5/6 217/5/6 222/5/6
f 221/5/6 220/5/6 222/5/6
