# MagicaVoxel @ Ephtracy

# group
o 

# material
mtllib Plantation1.mtl
usemtl palette

# normals
vn -1 0 0
vn 1 0 0
vn 0 0 1
vn 0 0 -1
vn 0 -1 0
vn 0 1 0

# texcoords
vt 0.134766 0.5
vt 0.658203 0.5
vt 0.716797 0.5
vt 0.720703 0.5
vt 0.724609 0.5
vt 0.732422 0.5

# verts
v -0.5 0 0.5
v -0.5 0 0.3
v -0.5 0 -0.3
v -0.5 0 -0.4
v -0.5 0 -0.5
v -0.5 0.1 0.3
v -0.5 0.1 -0.3
v -0.5 0.1 -0.4
v -0.5 0.1 -0.5
v -0.5 0.2 0.5
v -0.5 0.2 0.4
v -0.5 0.2 0.3
v -0.5 0.2 -0.5
v -0.5 0.3 0.5
v -0.5 0.3 0.4
v -0.5 0.3 -0.4
v -0.5 0.3 -0.5
v -0.5 0.4 0.5
v -0.5 0.4 0.4
v -0.5 0.4 -0.4
v -0.5 0.4 -0.5
v 0.3 0 0.5
v 0.3 0 0.4
v 0.3 0 -0.4
v 0.3 0 -0.5
v 0.3 0.1 0.5
v 0.3 0.1 0.4
v 0.3 0.1 -0.4
v 0.3 0.1 -0.5
v 0.4 0 0.4
v 0.4 0 0.3
v 0.4 0 -0.3
v 0.4 0 -0.4
v 0.4 0.1 0.4
v 0.4 0.1 0.3
v 0.4 0.1 -0.3
v 0.4 0.1 -0.4
v 0.4 0.2 0.4
v 0.4 0.2 -0.4
v 0.4 0.2 -0.5
v 0.4 0.3 0.4
v 0.4 0.3 -0.5
v 0.4 0.4 0.4
v 0.4 0.4 -0.5
v -0.4 0 0.4
v -0.4 0 0.3
v -0.4 0 -0.3
v -0.4 0 -0.4
v -0.4 0.1 0.4
v -0.4 0.1 0.3
v -0.4 0.1 -0.3
v -0.4 0.1 -0.4
v -0.4 0.2 0.4
v -0.4 0.2 -0.4
v -0.4 0.2 -0.5
v -0.4 0.3 0.4
v -0.4 0.3 -0.4
v -0.4 0.3 -0.5
v -0.4 0.4 0.4
v -0.4 0.4 -0.4
v -0.4 0.4 -0.5
v -0.3 0 0.5
v -0.3 0 0.4
v -0.3 0 -0.4
v -0.3 0 -0.5
v -0.3 0.1 0.5
v -0.3 0.1 0.4
v -0.3 0.1 -0.4
v -0.3 0.1 -0.5
v 0.5 0 0.5
v 0.5 0 0.3
v 0.5 0 -0.3
v 0.5 0 -0.5
v 0.5 0.1 0.3
v 0.5 0.1 0.2
v 0.5 0.1 -0.3
v 0.5 0.2 0.2
v 0.5 0.2 -0.5
v 0.5 0.3 0.5
v 0.5 0.3 0.4
v 0.5 0.3 -0.5
v 0.5 0.4 0.5
v 0.5 0.4 0.4
v 0.5 0.4 -0.5
v -0.5 0 0.5
v -0.5 0.2 0.5
v -0.5 0.3 0.5
v -0.5 0.4 0.5
v -0.4 0 0.5
v -0.4 0.2 0.5
v -0.3 0 0.5
v -0.3 0.1 0.5
v 0.3 0 0.5
v 0.3 0.1 0.5
v 0.4 0 0.5
v 0.4 0.2 0.5
v 0.4 0.3 0.5
v 0.5 0 0.5
v 0.5 0.3 0.5
v 0.5 0.4 0.5
v -0.5 0 -0.3
v -0.5 0.1 -0.3
v -0.4 0 -0.3
v -0.4 0.1 -0.3
v 0.4 0 -0.3
v 0.4 0.1 -0.3
v 0.5 0 -0.3
v 0.5 0.1 -0.3
v -0.4 0 -0.4
v -0.4 0.1 -0.4
v -0.3 0 -0.4
v -0.3 0.1 -0.4
v 0.3 0 -0.4
v 0.3 0.1 -0.4
v 0.4 0 -0.4
v 0.4 0.1 -0.4
v -0.4 0 0.4
v -0.4 0.1 0.4
v -0.4 0.2 0.4
v -0.4 0.3 0.4
v -0.4 0.4 0.4
v -0.3 0 0.4
v -0.3 0.1 0.4
v 0.3 0 0.4
v 0.3 0.1 0.4
v 0.4 0 0.4
v 0.4 0.1 0.4
v 0.4 0.2 0.4
v 0.4 0.3 0.4
v 0.4 0.4 0.4
v -0.5 0 0.3
v -0.5 0.1 0.3
v -0.4 0 0.3
v -0.4 0.1 0.3
v 0.4 0 0.3
v 0.4 0.1 0.3
v 0.5 0 0.3
v 0.5 0.1 0.3
v -0.5 0 -0.5
v -0.5 0.1 -0.5
v -0.5 0.2 -0.5
v -0.5 0.3 -0.5
v -0.5 0.4 -0.5
v -0.4 0.1 -0.5
v -0.4 0.2 -0.5
v -0.4 0.3 -0.5
v -0.4 0.4 -0.5
v -0.3 0 -0.5
v -0.3 0.1 -0.5
v 0.3 0 -0.5
v 0.3 0.1 -0.5
v 0.4 0 -0.5
v 0.4 0.2 -0.5
v 0.4 0.3 -0.5
v 0.4 0.4 -0.5
v 0.5 0 -0.5
v 0.5 0.2 -0.5
v 0.5 0.3 -0.5
v 0.5 0.4 -0.5
v -0.5 0 0.5
v -0.4 0 0.5
v -0.3 0 0.5
v 0.3 0 0.5
v 0.4 0 0.5
v 0.5 0 0.5
v -0.4 0 0.4
v -0.3 0 0.4
v 0.3 0 0.4
v 0.4 0 0.4
v -0.5 0 0.3
v -0.4 0 0.3
v 0.4 0 0.3
v 0.5 0 0.3
v -0.5 0 -0.3
v -0.4 0 -0.3
v 0.4 0 -0.3
v 0.5 0 -0.3
v -0.5 0 -0.4
v -0.4 0 -0.4
v -0.3 0 -0.4
v 0.3 0 -0.4
v 0.4 0 -0.4
v -0.5 0 -0.5
v -0.3 0 -0.5
v 0.3 0 -0.5
v 0.4 0 -0.5
v 0.5 0 -0.5
v -0.3 0.1 0.5
v 0.3 0.1 0.5
v -0.4 0.1 0.4
v -0.3 0.1 0.4
v 0.3 0.1 0.4
v 0.4 0.1 0.4
v -0.5 0.1 0.3
v -0.4 0.1 0.3
v 0.4 0.1 0.3
v 0.5 0.1 0.3
v 0.4 0.1 0.2
v 0.5 0.1 0.2
v -0.5 0.1 -0.3
v -0.4 0.1 -0.3
v 0.4 0.1 -0.3
v 0.5 0.1 -0.3
v -0.4 0.1 -0.4
v -0.3 0.1 -0.4
v 0.3 0.1 -0.4
v 0.4 0.1 -0.4
v -0.3 0.1 -0.5
v 0.3 0.1 -0.5
v -0.4 0.2 0.4
v 0.4 0.2 0.4
v -0.4 0.2 -0.4
v 0.4 0.2 -0.4
v -0.4 0.2 -0.5
v 0.4 0.2 -0.5
v -0.5 0.4 0.5
v 0.5 0.4 0.5
v -0.5 0.4 0.4
v -0.4 0.4 0.4
v 0.4 0.4 0.4
v 0.5 0.4 0.4
v -0.5 0.4 -0.4
v -0.4 0.4 -0.4
v -0.5 0.4 -0.5
v -0.4 0.4 -0.5
v 0.4 0.4 -0.5
v 0.5 0.4 -0.5

# faces
f 6/4/1 2/4/1 1/4/1
f 7/3/1 4/3/1 3/3/1
f 8/4/1 5/4/1 4/4/1
f 8/3/1 4/3/1 7/3/1
f 9/4/1 5/4/1 8/4/1
f 10/4/1 6/4/1 1/4/1
f 11/4/1 6/4/1 10/4/1
f 12/2/1 7/2/1 6/2/1
f 12/4/1 6/4/1 11/4/1
f 12/2/1 8/2/1 7/2/1
f 12/2/1 9/2/1 8/2/1
f 13/2/1 9/2/1 12/2/1
f 14/6/1 11/6/1 10/6/1
f 15/4/1 12/4/1 11/4/1
f 15/6/1 11/6/1 14/6/1
f 15/4/1 13/4/1 12/4/1
f 16/4/1 13/4/1 15/4/1
f 17/4/1 13/4/1 16/4/1
f 18/2/1 15/2/1 14/2/1
f 19/4/1 16/4/1 15/4/1
f 19/2/1 15/2/1 18/2/1
f 20/5/1 17/5/1 16/5/1
f 20/4/1 16/4/1 19/4/1
f 21/5/1 17/5/1 20/5/1
f 26/1/1 23/1/1 22/1/1
f 27/1/1 23/1/1 26/1/1
f 28/4/1 25/4/1 24/4/1
f 29/4/1 25/4/1 28/4/1
f 34/4/1 31/4/1 30/4/1
f 35/4/1 31/4/1 34/4/1
f 36/2/1 33/2/1 32/2/1
f 37/2/1 33/2/1 36/2/1
f 41/4/1 39/4/1 38/4/1
f 41/4/1 40/4/1 39/4/1
f 42/4/1 40/4/1 41/4/1
f 43/5/1 42/5/1 41/5/1
f 44/5/1 42/5/1 43/5/1
f 45/4/2 46/4/2 49/4/2
f 49/4/2 46/4/2 50/4/2
f 47/3/2 48/3/2 51/3/2
f 51/3/2 48/3/2 52/3/2
f 53/4/2 54/4/2 56/4/2
f 54/4/2 55/4/2 56/4/2
f 56/4/2 55/4/2 57/4/2
f 57/4/2 55/4/2 58/4/2
f 56/4/2 57/4/2 59/4/2
f 57/5/2 58/5/2 60/5/2
f 59/4/2 57/4/2 60/4/2
f 60/5/2 58/5/2 61/5/2
f 62/1/2 63/1/2 66/1/2
f 66/1/2 63/1/2 67/1/2
f 64/4/2 65/4/2 68/4/2
f 68/4/2 65/4/2 69/4/2
f 70/4/2 71/4/2 74/4/2
f 72/2/2 73/2/2 76/2/2
f 74/4/2 75/4/2 77/4/2
f 75/2/2 76/2/2 77/2/2
f 76/2/2 73/2/2 78/2/2
f 77/2/2 76/2/2 78/2/2
f 74/4/2 77/4/2 79/4/2
f 70/4/2 74/4/2 79/4/2
f 77/4/2 78/4/2 79/4/2
f 79/4/2 78/4/2 80/4/2
f 80/4/2 78/4/2 81/4/2
f 79/2/2 80/2/2 82/2/2
f 80/5/2 81/5/2 83/5/2
f 82/2/2 80/2/2 83/2/2
f 83/5/2 81/5/2 84/5/2
f 89/4/3 86/4/3 85/4/3
f 90/6/3 87/6/3 86/6/3
f 90/4/3 86/4/3 89/4/3
f 91/1/3 90/1/3 89/1/3
f 92/1/3 90/1/3 91/1/3
f 94/1/3 90/1/3 92/1/3
f 95/1/3 94/1/3 93/1/3
f 96/6/3 87/6/3 90/6/3
f 96/1/3 94/1/3 95/1/3
f 96/1/3 90/1/3 94/1/3
f 97/2/3 88/2/3 87/2/3
f 97/6/3 87/6/3 96/6/3
f 98/4/3 96/4/3 95/4/3
f 98/4/3 97/4/3 96/4/3
f 99/2/3 88/2/3 97/2/3
f 99/4/3 97/4/3 98/4/3
f 100/2/3 88/2/3 99/2/3
f 103/3/3 102/3/3 101/3/3
f 104/3/3 102/3/3 103/3/3
f 107/2/3 106/2/3 105/2/3
f 108/2/3 106/2/3 107/2/3
f 111/4/3 110/4/3 109/4/3
f 112/4/3 110/4/3 111/4/3
f 115/4/3 114/4/3 113/4/3
f 116/4/3 114/4/3 115/4/3
f 117/1/4 118/1/4 122/1/4
f 122/1/4 118/1/4 123/1/4
f 124/1/4 125/1/4 126/1/4
f 126/1/4 125/1/4 127/1/4
f 119/6/4 120/6/4 128/6/4
f 120/2/4 121/2/4 129/2/4
f 128/6/4 120/6/4 129/6/4
f 129/2/4 121/2/4 130/2/4
f 131/4/4 132/4/4 133/4/4
f 133/4/4 132/4/4 134/4/4
f 135/4/4 136/4/4 137/4/4
f 137/4/4 136/4/4 138/4/4
f 139/4/4 140/4/4 144/4/4
f 140/2/4 141/2/4 144/2/4
f 141/4/4 142/4/4 145/4/4
f 144/2/4 141/2/4 145/2/4
f 142/5/4 143/5/4 146/5/4
f 145/4/4 142/4/4 146/4/4
f 146/5/4 143/5/4 147/5/4
f 144/4/4 145/4/4 148/4/4
f 139/4/4 144/4/4 148/4/4
f 148/4/4 145/4/4 149/4/4
f 149/4/4 145/4/4 151/4/4
f 150/4/4 151/4/4 152/4/4
f 151/4/4 145/4/4 153/4/4
f 152/4/4 151/4/4 153/4/4
f 152/2/4 153/2/4 156/2/4
f 153/4/4 154/4/4 157/4/4
f 156/2/4 153/2/4 157/2/4
f 154/5/4 155/5/4 158/5/4
f 157/4/4 154/4/4 158/4/4
f 158/5/4 155/5/4 159/5/4
f 166/4/5 161/4/5 160/4/5
f 166/1/5 162/1/5 161/1/5
f 167/1/5 162/1/5 166/1/5
f 168/1/5 164/1/5 163/1/5
f 169/4/5 165/4/5 164/4/5
f 169/1/5 164/1/5 168/1/5
f 170/4/5 166/4/5 160/4/5
f 171/4/5 166/4/5 170/4/5
f 172/4/5 165/4/5 169/4/5
f 173/4/5 165/4/5 172/4/5
f 178/3/5 175/3/5 174/3/5
f 179/3/5 175/3/5 178/3/5
f 182/2/5 177/2/5 176/2/5
f 183/4/5 180/4/5 179/4/5
f 183/4/5 179/4/5 178/4/5
f 184/4/5 180/4/5 183/4/5
f 185/4/5 182/4/5 181/4/5
f 186/2/5 177/2/5 182/2/5
f 186/4/5 182/4/5 185/4/5
f 187/2/5 177/2/5 186/2/5
f 191/1/5 189/1/5 188/1/5
f 192/1/5 189/1/5 191/1/5
f 195/3/5 191/3/5 190/3/5
f 195/3/5 193/3/5 192/3/5
f 195/3/5 192/3/5 191/3/5
f 196/3/5 193/3/5 195/3/5
f 198/3/5 196/3/5 195/3/5
f 198/4/5 197/4/5 196/4/5
f 199/4/5 197/4/5 198/4/5
f 200/2/5 195/2/5 194/2/5
f 201/3/5 198/3/5 195/3/5
f 201/2/5 195/2/5 200/2/5
f 202/2/5 199/2/5 198/2/5
f 202/3/5 198/3/5 201/3/5
f 203/2/5 199/2/5 202/2/5
f 204/3/5 202/3/5 201/3/5
f 205/3/5 202/3/5 204/3/5
f 206/3/5 202/3/5 205/3/5
f 207/3/5 202/3/5 206/3/5
f 208/4/5 206/4/5 205/4/5
f 209/4/5 206/4/5 208/4/5
f 210/3/6 211/3/6 212/3/6
f 212/3/6 211/3/6 213/3/6
f 212/4/6 213/4/6 214/4/6
f 214/4/6 213/4/6 215/4/6
f 216/2/6 217/2/6 218/2/6
f 218/2/6 217/2/6 219/2/6
f 219/2/6 217/2/6 220/2/6
f 220/2/6 217/2/6 221/2/6
f 218/4/6 219/4/6 222/4/6
f 222/4/6 219/4/6 223/4/6
f 222/5/6 223/5/6 224/5/6
f 224/5/6 223/5/6 225/5/6
f 220/5/6 221/5/6 226/5/6
f 226/5/6 221/5/6 227/5/6
