# MagicaVoxel @ Ephtracy

# group
o 

# material
mtllib Plantation4.mtl
usemtl palette

# normals
vn -1 0 0
vn 1 0 0
vn 0 0 1
vn 0 0 -1
vn 0 -1 0
vn 0 1 0

# texcoords
vt 0.134766 0.5
vt 0.658203 0.5
vt 0.716797 0.5
vt 0.720703 0.5
vt 0.724609 0.5
vt 0.732422 0.5

# verts
v -0.5 0 0.5
v -0.5 0 0.3
v -0.5 0 -0.3
v -0.5 0 -0.4
v -0.5 0 -0.5
v -0.5 0.1 0.3
v -0.5 0.1 -0.3
v -0.5 0.1 -0.4
v -0.5 0.1 -0.5
v -0.5 0.2 0.5
v -0.5 0.2 0.4
v -0.5 0.2 0.3
v -0.5 0.2 -0.5
v -0.5 0.3 0.5
v -0.5 0.3 0.4
v -0.5 0.3 -0.4
v -0.5 0.3 -0.5
v -0.5 0.4 0.5
v -0.5 0.4 0.4
v -0.5 0.4 -0.4
v -0.5 0.4 -0.5
v 0.3 0 0.5
v 0.3 0 0.4
v 0.3 0 -0.4
v 0.3 0 -0.5
v 0.3 0.1 0.5
v 0.3 0.1 0.4
v 0.3 0.1 -0.4
v 0.3 0.1 -0.5
v 0.4 0 0.4
v 0.4 0 0.3
v 0.4 0 -0.3
v 0.4 0 -0.4
v 0.4 0.1 0.4
v 0.4 0.1 0.3
v 0.4 0.1 -0.3
v 0.4 0.1 -0.4
v 0.4 0.2 0.5
v 0.4 0.2 0.4
v 0.4 0.2 -0.4
v 0.4 0.2 -0.5
v 0.4 0.3 0.5
v 0.4 0.3 0.4
v 0.4 0.3 -0.5
v 0.4 0.4 0.5
v 0.4 0.4 0.4
v 0.4 0.4 -0.5
v -0.4 0 0.4
v -0.4 0 0.3
v -0.4 0 -0.3
v -0.4 0 -0.4
v -0.4 0.1 0.4
v -0.4 0.1 0.3
v -0.4 0.1 -0.3
v -0.4 0.1 -0.4
v -0.4 0.2 0.5
v -0.4 0.2 0.4
v -0.4 0.2 -0.4
v -0.4 0.2 -0.5
v -0.4 0.3 0.5
v -0.4 0.3 0.4
v -0.4 0.3 -0.4
v -0.4 0.3 -0.5
v -0.4 0.4 0.5
v -0.4 0.4 0.4
v -0.4 0.4 -0.4
v -0.4 0.4 -0.5
v -0.3 0 0.5
v -0.3 0 0.4
v -0.3 0 -0.4
v -0.3 0 -0.5
v -0.3 0.1 0.5
v -0.3 0.1 0.4
v -0.3 0.1 -0.4
v -0.3 0.1 -0.5
v 0.5 0 0.5
v 0.5 0 0.3
v 0.5 0 -0.3
v 0.5 0 -0.5
v 0.5 0.1 0.3
v 0.5 0.1 0.2
v 0.5 0.1 -0.3
v 0.5 0.2 0.2
v 0.5 0.2 -0.5
v 0.5 0.3 0.5
v 0.5 0.3 0.4
v 0.5 0.3 -0.5
v 0.5 0.4 0.5
v 0.5 0.4 0.4
v 0.5 0.4 -0.5
v -0.5 0 0.5
v -0.5 0.2 0.5
v -0.5 0.3 0.5
v -0.5 0.4 0.5
v -0.4 0 0.5
v -0.4 0.2 0.5
v -0.4 0.3 0.5
v -0.4 0.4 0.5
v -0.3 0 0.5
v -0.3 0.1 0.5
v 0.3 0 0.5
v 0.3 0.1 0.5
v 0.4 0 0.5
v 0.4 0.2 0.5
v 0.4 0.3 0.5
v 0.4 0.4 0.5
v 0.5 0 0.5
v 0.5 0.3 0.5
v 0.5 0.4 0.5
v -0.5 0 -0.3
v -0.5 0.1 -0.3
v -0.4 0 -0.3
v -0.4 0.1 -0.3
v 0.4 0 -0.3
v 0.4 0.1 -0.3
v 0.5 0 -0.3
v 0.5 0.1 -0.3
v -0.4 0 -0.4
v -0.4 0.1 -0.4
v -0.3 0 -0.4
v -0.3 0.1 -0.4
v 0.3 0 -0.4
v 0.3 0.1 -0.4
v 0.4 0 -0.4
v 0.4 0.1 -0.4
v -0.4 0 0.4
v -0.4 0.1 0.4
v -0.3 0 0.4
v -0.3 0.1 0.4
v 0.3 0 0.4
v 0.3 0.1 0.4
v 0.4 0 0.4
v 0.4 0.1 0.4
v -0.5 0 0.3
v -0.5 0.1 0.3
v -0.4 0 0.3
v -0.4 0.1 0.3
v 0.4 0 0.3
v 0.4 0.1 0.3
v 0.5 0 0.3
v 0.5 0.1 0.3
v -0.5 0 -0.5
v -0.5 0.1 -0.5
v -0.5 0.2 -0.5
v -0.5 0.3 -0.5
v -0.5 0.4 -0.5
v -0.4 0.1 -0.5
v -0.4 0.2 -0.5
v -0.4 0.3 -0.5
v -0.4 0.4 -0.5
v -0.3 0 -0.5
v -0.3 0.1 -0.5
v 0.3 0 -0.5
v 0.3 0.1 -0.5
v 0.4 0 -0.5
v 0.4 0.2 -0.5
v 0.4 0.3 -0.5
v 0.4 0.4 -0.5
v 0.5 0 -0.5
v 0.5 0.2 -0.5
v 0.5 0.3 -0.5
v 0.5 0.4 -0.5
v -0.5 0 0.5
v -0.4 0 0.5
v -0.3 0 0.5
v 0.3 0 0.5
v 0.4 0 0.5
v 0.5 0 0.5
v -0.4 0 0.4
v -0.3 0 0.4
v 0.3 0 0.4
v 0.4 0 0.4
v -0.5 0 0.3
v -0.4 0 0.3
v 0.4 0 0.3
v 0.5 0 0.3
v -0.5 0 -0.3
v -0.4 0 -0.3
v 0.4 0 -0.3
v 0.5 0 -0.3
v -0.5 0 -0.4
v -0.4 0 -0.4
v -0.3 0 -0.4
v 0.3 0 -0.4
v 0.4 0 -0.4
v -0.5 0 -0.5
v -0.3 0 -0.5
v 0.3 0 -0.5
v 0.4 0 -0.5
v 0.5 0 -0.5
v -0.3 0.1 0.5
v 0.3 0.1 0.5
v -0.4 0.1 0.4
v -0.3 0.1 0.4
v 0.3 0.1 0.4
v 0.4 0.1 0.4
v -0.5 0.1 0.3
v -0.4 0.1 0.3
v 0.4 0.1 0.3
v 0.5 0.1 0.3
v 0.4 0.1 0.2
v 0.5 0.1 0.2
v -0.5 0.1 -0.3
v -0.4 0.1 -0.3
v 0.4 0.1 -0.3
v 0.5 0.1 -0.3
v -0.4 0.1 -0.4
v -0.3 0.1 -0.4
v 0.3 0.1 -0.4
v 0.4 0.1 -0.4
v -0.3 0.1 -0.5
v 0.3 0.1 -0.5
v -0.4 0.2 0.5
v 0.4 0.2 0.5
v -0.4 0.2 0.4
v 0.4 0.2 0.4
v -0.4 0.2 -0.4
v 0.4 0.2 -0.4
v -0.4 0.2 -0.5
v 0.4 0.2 -0.5
v -0.5 0.4 0.5
v -0.4 0.4 0.5
v 0.4 0.4 0.5
v 0.5 0.4 0.5
v -0.5 0.4 0.4
v -0.4 0.4 0.4
v 0.4 0.4 0.4
v 0.5 0.4 0.4
v -0.5 0.4 -0.4
v -0.4 0.4 -0.4
v -0.5 0.4 -0.5
v -0.4 0.4 -0.5
v 0.4 0.4 -0.5
v 0.5 0.4 -0.5

# faces
f 6/4/1 2/4/1 1/4/1
f 7/3/1 4/3/1 3/3/1
f 8/4/1 5/4/1 4/4/1
f 8/3/1 4/3/1 7/3/1
f 9/4/1 5/4/1 8/4/1
f 10/4/1 6/4/1 1/4/1
f 11/4/1 6/4/1 10/4/1
f 12/2/1 7/2/1 6/2/1
f 12/4/1 6/4/1 11/4/1
f 12/2/1 8/2/1 7/2/1
f 12/2/1 9/2/1 8/2/1
f 13/2/1 9/2/1 12/2/1
f 14/6/1 11/6/1 10/6/1
f 15/4/1 12/4/1 11/4/1
f 15/6/1 11/6/1 14/6/1
f 15/4/1 13/4/1 12/4/1
f 16/4/1 13/4/1 15/4/1
f 17/4/1 13/4/1 16/4/1
f 18/2/1 15/2/1 14/2/1
f 19/4/1 16/4/1 15/4/1
f 19/2/1 15/2/1 18/2/1
f 20/5/1 17/5/1 16/5/1
f 20/4/1 16/4/1 19/4/1
f 21/5/1 17/5/1 20/5/1
f 26/1/1 23/1/1 22/1/1
f 27/1/1 23/1/1 26/1/1
f 28/4/1 25/4/1 24/4/1
f 29/4/1 25/4/1 28/4/1
f 34/4/1 31/4/1 30/4/1
f 35/4/1 31/4/1 34/4/1
f 36/2/1 33/2/1 32/2/1
f 37/2/1 33/2/1 36/2/1
f 42/4/1 40/4/1 39/4/1
f 42/4/1 41/4/1 40/4/1
f 42/4/1 39/4/1 38/4/1
f 43/4/1 41/4/1 42/4/1
f 44/4/1 41/4/1 43/4/1
f 45/2/1 43/2/1 42/2/1
f 46/5/1 44/5/1 43/5/1
f 46/2/1 43/2/1 45/2/1
f 47/5/1 44/5/1 46/5/1
f 48/4/2 49/4/2 52/4/2
f 52/4/2 49/4/2 53/4/2
f 50/3/2 51/3/2 54/3/2
f 54/3/2 51/3/2 55/3/2
f 56/6/2 57/6/2 60/6/2
f 57/4/2 58/4/2 61/4/2
f 60/6/2 57/6/2 61/6/2
f 58/4/2 59/4/2 61/4/2
f 61/4/2 59/4/2 62/4/2
f 62/4/2 59/4/2 63/4/2
f 60/2/2 61/2/2 64/2/2
f 61/4/2 62/4/2 65/4/2
f 64/2/2 61/2/2 65/2/2
f 62/5/2 63/5/2 66/5/2
f 65/4/2 62/4/2 66/4/2
f 66/5/2 63/5/2 67/5/2
f 68/1/2 69/1/2 72/1/2
f 72/1/2 69/1/2 73/1/2
f 70/4/2 71/4/2 74/4/2
f 74/4/2 71/4/2 75/4/2
f 76/4/2 77/4/2 80/4/2
f 78/2/2 79/2/2 82/2/2
f 80/4/2 81/4/2 83/4/2
f 81/2/2 82/2/2 83/2/2
f 82/2/2 79/2/2 84/2/2
f 83/2/2 82/2/2 84/2/2
f 80/4/2 83/4/2 85/4/2
f 76/4/2 80/4/2 85/4/2
f 83/4/2 84/4/2 85/4/2
f 85/4/2 84/4/2 86/4/2
f 86/4/2 84/4/2 87/4/2
f 85/2/2 86/2/2 88/2/2
f 86/5/2 87/5/2 89/5/2
f 88/2/2 86/2/2 89/2/2
f 89/5/2 87/5/2 90/5/2
f 95/4/3 92/4/3 91/4/3
f 96/6/3 93/6/3 92/6/3
f 96/4/3 92/4/3 95/4/3
f 97/2/3 94/2/3 93/2/3
f 97/6/3 93/6/3 96/6/3
f 98/2/3 94/2/3 97/2/3
f 99/1/3 96/1/3 95/1/3
f 100/1/3 96/1/3 99/1/3
f 102/1/3 96/1/3 100/1/3
f 103/1/3 102/1/3 101/1/3
f 104/1/3 96/1/3 102/1/3
f 104/1/3 102/1/3 103/1/3
f 107/4/3 104/4/3 103/4/3
f 107/4/3 105/4/3 104/4/3
f 108/2/3 106/2/3 105/2/3
f 108/4/3 105/4/3 107/4/3
f 109/2/3 106/2/3 108/2/3
f 112/3/3 111/3/3 110/3/3
f 113/3/3 111/3/3 112/3/3
f 116/2/3 115/2/3 114/2/3
f 117/2/3 115/2/3 116/2/3
f 120/4/3 119/4/3 118/4/3
f 121/4/3 119/4/3 120/4/3
f 124/4/3 123/4/3 122/4/3
f 125/4/3 123/4/3 124/4/3
f 126/1/4 127/1/4 128/1/4
f 128/1/4 127/1/4 129/1/4
f 130/1/4 131/1/4 132/1/4
f 132/1/4 131/1/4 133/1/4
f 134/4/4 135/4/4 136/4/4
f 136/4/4 135/4/4 137/4/4
f 138/4/4 139/4/4 140/4/4
f 140/4/4 139/4/4 141/4/4
f 142/4/4 143/4/4 147/4/4
f 143/2/4 144/2/4 147/2/4
f 144/4/4 145/4/4 148/4/4
f 147/2/4 144/2/4 148/2/4
f 145/5/4 146/5/4 149/5/4
f 148/4/4 145/4/4 149/4/4
f 149/5/4 146/5/4 150/5/4
f 147/4/4 148/4/4 151/4/4
f 142/4/4 147/4/4 151/4/4
f 151/4/4 148/4/4 152/4/4
f 152/4/4 148/4/4 154/4/4
f 153/4/4 154/4/4 155/4/4
f 154/4/4 148/4/4 156/4/4
f 155/4/4 154/4/4 156/4/4
f 155/2/4 156/2/4 159/2/4
f 156/4/4 157/4/4 160/4/4
f 159/2/4 156/2/4 160/2/4
f 157/5/4 158/5/4 161/5/4
f 160/4/4 157/4/4 161/4/4
f 161/5/4 158/5/4 162/5/4
f 169/4/5 164/4/5 163/4/5
f 169/1/5 165/1/5 164/1/5
f 170/1/5 165/1/5 169/1/5
f 171/1/5 167/1/5 166/1/5
f 172/4/5 168/4/5 167/4/5
f 172/1/5 167/1/5 171/1/5
f 173/4/5 169/4/5 163/4/5
f 174/4/5 169/4/5 173/4/5
f 175/4/5 168/4/5 172/4/5
f 176/4/5 168/4/5 175/4/5
f 181/3/5 178/3/5 177/3/5
f 182/3/5 178/3/5 181/3/5
f 185/2/5 180/2/5 179/2/5
f 186/4/5 183/4/5 182/4/5
f 186/4/5 182/4/5 181/4/5
f 187/4/5 183/4/5 186/4/5
f 188/4/5 185/4/5 184/4/5
f 189/2/5 180/2/5 185/2/5
f 189/4/5 185/4/5 188/4/5
f 190/2/5 180/2/5 189/2/5
f 194/1/5 192/1/5 191/1/5
f 195/1/5 192/1/5 194/1/5
f 198/3/5 194/3/5 193/3/5
f 198/3/5 196/3/5 195/3/5
f 198/3/5 195/3/5 194/3/5
f 199/3/5 196/3/5 198/3/5
f 201/3/5 199/3/5 198/3/5
f 201/4/5 200/4/5 199/4/5
f 202/4/5 200/4/5 201/4/5
f 203/2/5 198/2/5 197/2/5
f 204/3/5 201/3/5 198/3/5
f 204/2/5 198/2/5 203/2/5
f 205/2/5 202/2/5 201/2/5
f 205/3/5 201/3/5 204/3/5
f 206/2/5 202/2/5 205/2/5
f 207/3/5 205/3/5 204/3/5
f 208/3/5 205/3/5 207/3/5
f 209/3/5 205/3/5 208/3/5
f 210/3/5 205/3/5 209/3/5
f 211/4/5 209/4/5 208/4/5
f 212/4/5 209/4/5 211/4/5
f 213/1/6 214/1/6 215/1/6
f 215/1/6 214/1/6 216/1/6
f 215/3/6 216/3/6 217/3/6
f 217/3/6 216/3/6 218/3/6
f 217/4/6 218/4/6 219/4/6
f 219/4/6 218/4/6 220/4/6
f 221/2/6 222/2/6 225/2/6
f 225/2/6 222/2/6 226/2/6
f 223/2/6 224/2/6 227/2/6
f 227/2/6 224/2/6 228/2/6
f 225/4/6 226/4/6 229/4/6
f 229/4/6 226/4/6 230/4/6
f 229/5/6 230/5/6 231/5/6
f 231/5/6 230/5/6 232/5/6
f 227/5/6 228/5/6 233/5/6
f 233/5/6 228/5/6 234/5/6
